<svg xmlns="http://www.w3.org/2000/svg" xmlns:xlink="http://www.w3.org/1999/xlink" width="500" zoomAndPan="magnify" viewBox="0 0 375 374.999991" height="500" preserveAspectRatio="xMidYMid meet" version="1.0"><defs><clipPath id="id1"><path d="M 196 0 L 284.871094 0 L 284.871094 149 L 196 149 Z M 196 0 " clip-rule="nonzero"/></clipPath><clipPath id="id2"><path d="M 196 0 L 284.871094 0 L 284.871094 150 L 196 150 Z M 196 0 " clip-rule="nonzero"/></clipPath><clipPath id="id3"><path d="M 109.371094 0 L 197 0 L 197 149 L 109.371094 149 Z M 109.371094 0 " clip-rule="nonzero"/></clipPath><clipPath id="id4"><path d="M 109.371094 0 L 197 0 L 197 150 L 109.371094 150 Z M 109.371094 0 " clip-rule="nonzero"/></clipPath></defs><g clip-path="url(#id1)"><path fill="#498a0c" d="M 206.308594 10.636719 C 206.796875 11.992188 207.078125 13.90625 207.410156 15.304688 C 207.410156 15.304688 211.117188 13.488281 212.816406 13.015625 C 213.859375 12.726562 215.304688 12.460938 216.390625 12.46875 C 217.253906 12.472656 218.457031 12.542969 219.230469 12.925781 C 220.15625 13.378906 221.289062 14.367188 221.707031 15.304688 C 222.320312 16.6875 221.816406 18.835938 221.707031 20.339844 C 221.570312 22.195312 221.207031 24.660156 220.789062 26.476562 C 220.027344 29.792969 218.351562 34.035156 217.304688 37.277344 C 217.308594 37.277344 220.121094 36.785156 221.339844 36.820312 C 222.484375 36.851562 224.027344 37.0625 225.097656 37.460938 C 225.8125 37.726562 226.894531 38.09375 227.296875 38.742188 C 228.183594 40.164062 227.640625 42.707031 227.207031 44.328125 C 226.28125 47.78125 222.9375 51.503906 221.011719 54.519531 C 220.027344 56.054688 218.648438 58.058594 217.632812 59.578125 C 217.632812 59.578125 221.667969 60.269531 223.121094 61.179688 C 224.09375 61.789062 225.148438 62.980469 225.738281 63.960938 C 226.082031 64.539062 226.535156 65.398438 226.496094 66.070312 C 226.429688 67.316406 225.273438 68.742188 224.472656 69.695312 C 223.390625 70.988281 221.40625 72.152344 220.082031 73.195312 C 217.988281 74.851562 214.945312 76.785156 213.074219 78.6875 C 210.917969 80.878906 208.519531 84.253906 206.925781 86.878906 C 205.65625 88.964844 204.195312 91.90625 203.367188 94.203125 C 202.6875 96.082031 202.058594 98.691406 201.75 100.667969 C 201.085938 104.882812 201.21875 110.613281 200.992188 114.875 C 200.992188 114.875 204.6875 110.550781 206.386719 108.804688 C 207.9375 107.21875 210.109375 105.207031 211.78125 103.757812 C 212.746094 102.921875 214.195312 101.996094 215.085938 101.085938 C 216.371094 99.777344 217.90625 97.828125 218.792969 96.222656 C 219.972656 94.089844 220.675781 90.851562 221.574219 88.582031 C 222.421875 86.445312 223.472656 83.539062 224.605469 81.539062 C 225.648438 79.691406 227.160156 77.214844 228.726562 75.78125 C 229.367188 75.199219 230.363281 74.574219 231.160156 74.246094 C 231.847656 73.960938 232.84375 73.554688 233.574219 73.691406 C 234.378906 73.839844 235.234375 74.65625 235.816406 75.226562 C 236.464844 75.855469 237.164062 76.863281 237.582031 77.664062 C 238.054688 78.578125 238.550781 79.890625 238.6875 80.910156 C 239.71875 80.351562 240.445312 79.269531 241.15625 78.644531 C 242.222656 77.710938 243.722656 76.539062 244.945312 75.820312 C 245.878906 75.269531 247.183594 74.609375 248.226562 74.316406 C 249.238281 74.03125 250.652344 73.828125 251.703125 73.890625 C 252.546875 73.941406 253.695312 74.148438 254.441406 74.546875 C 255.296875 75 256.214844 75.972656 256.796875 76.746094 C 257.3125 77.429688 257.714844 78.527344 258.109375 79.289062 C 258.109375 79.289062 260.746094 77.617188 262 77.164062 C 263.554688 76.601562 265.761719 76.15625 267.414062 76.144531 C 268.125 76.136719 269.089844 76.25 269.761719 76.484375 C 270.742188 76.828125 272.042969 77.496094 272.722656 78.28125 C 273.300781 78.945312 273.734375 80.105469 273.90625 80.96875 C 274.09375 81.914062 273.941406 83.226562 273.824219 84.183594 C 273.78125 84.554688 273.652344 85.039062 273.582031 85.40625 C 273.582031 85.40625 275.691406 86.019531 276.558594 86.382812 C 277.816406 86.910156 279.507812 87.65625 280.589844 88.492188 C 281.605469 89.273438 282.789062 90.5625 283.472656 91.648438 C 283.894531 92.316406 284.488281 93.277344 284.496094 94.066406 C 284.511719 95.25 283.566406 96.699219 282.914062 97.6875 C 282.273438 98.660156 281.171875 99.792969 280.265625 100.523438 C 279.34375 101.257812 277.964844 102.046875 276.878906 102.507812 C 275.941406 102.90625 274.59375 103.160156 273.613281 103.441406 C 273.613281 103.441406 275.640625 106.105469 276.160156 107.425781 C 276.558594 108.449219 277.136719 109.972656 276.835938 111.03125 C 276.476562 112.292969 274.980469 113.582031 273.824219 114.210938 C 272.675781 114.835938 270.839844 114.90625 269.539062 115.015625 C 267.761719 115.160156 265.371094 115.03125 263.597656 114.84375 C 261.457031 114.617188 258.664062 113.925781 256.550781 113.53125 C 256.550781 113.53125 256.882812 114.828125 256.933594 115.394531 C 257.015625 116.300781 257.109375 117.550781 256.839844 118.417969 C 256.5625 119.304688 255.941406 120.519531 255.15625 121.019531 C 254.273438 121.582031 252.734375 121.535156 251.6875 121.449219 C 250.003906 121.316406 247.859375 120.464844 246.320312 119.773438 C 244.390625 118.902344 242.109375 117.195312 240.300781 116.089844 C 240.300781 116.089844 239.96875 118.265625 239.597656 119.121094 C 239.191406 120.058594 238.542969 121.367188 237.699219 121.9375 C 236.996094 122.417969 235.78125 122.675781 234.933594 122.589844 C 233.480469 122.441406 231.785156 121.21875 230.597656 120.367188 C 229.691406 119.71875 228.675781 118.621094 227.914062 117.808594 C 226.4375 116.226562 224.710938 113.898438 223.339844 112.226562 C 223.339844 112.226562 221.714844 111.933594 221.007812 111.945312 C 220.355469 111.953125 219.484375 112.105469 218.851562 112.269531 C 217.730469 112.554688 216.214844 113.015625 215.242188 113.644531 C 213.589844 114.707031 211.761719 116.703125 210.703125 118.355469 C 209.398438 120.394531 208.503906 123.570312 207.835938 125.898438 C 207.183594 128.175781 206.59375 131.296875 206.304688 133.652344 C 205.9375 136.664062 205.863281 140.71875 205.855469 143.75 C 205.847656 145.28125 205.96875 147.316406 206.015625 148.847656 C 206.015625 148.847656 199.429688 148.925781 196.605469 148.960938 C 196.605469 148.945312 196.449219 44.894531 196.378906 0.296875 C 196.378906 0.296875 196.847656 0.289062 197.050781 0.285156 C 198.183594 0.371094 199.609375 1.101562 200.535156 1.757812 C 201.644531 2.546875 202.789062 4.019531 203.558594 5.144531 C 204.601562 6.664062 205.6875 8.902344 206.308594 10.636719 M 238.6875 81.011719 C 238.75 81.066406 238.871094 80.933594 238.941406 80.886719 C 238.691406 80.941406 238.664062 80.992188 238.6875 81.011719 Z M 238.6875 81.011719 " fill-opacity="1" fill-rule="evenodd"/></g><g clip-path="url(#id2)"><path stroke-linecap="round" transform="matrix(0.567709, 0, 0, 0.567065, -170.500091, -12.41872)" fill="none" stroke-linejoin="round" d="M 665.67568 48.889309 C 665.090819 46.423211 664.595407 43.047825 663.735316 40.657501 C 662.641281 37.598988 660.728441 33.651853 658.891288 30.972211 C 657.535785 28.98831 655.519733 26.39133 653.565608 24.999845 C 651.934877 23.842569 649.423413 22.554412 647.428004 22.402864 C 647.070206 22.409753 646.244519 22.42353 646.244519 22.42353 C 646.368372 101.070015 646.643601 284.560112 646.643601 284.587666 C 651.618364 284.525669 663.219262 284.387898 663.219262 284.387898 C 663.136694 281.68759 662.923391 278.098659 662.937153 275.398351 C 662.950914 270.052842 663.081648 262.902535 663.728436 257.591469 C 664.237609 253.437678 665.276598 247.933733 666.425679 243.917713 C 667.602283 239.812142 669.177968 234.211757 671.476129 230.615938 C 673.340805 227.702085 676.560984 224.18204 679.471529 222.308357 C 681.184829 221.199301 683.85455 220.386453 685.829317 219.88359 C 686.943994 219.594271 688.478395 219.325618 689.627476 219.311841 C 690.872887 219.291175 693.735267 219.807816 693.735267 219.807816 C 696.150401 222.756112 699.191681 226.861683 701.792594 229.651542 C 703.134335 231.084359 704.923323 233.02004 706.51965 234.163538 C 708.61139 235.66524 711.597624 237.821353 714.157253 238.083118 C 715.650369 238.234666 717.790274 237.780022 719.028804 236.932731 C 720.51504 235.927004 721.65724 233.619343 722.372835 231.966093 C 723.026504 230.457502 723.611366 226.620584 723.611366 226.620584 C 726.79714 228.570041 730.815482 231.580334 734.214559 233.116479 C 736.925564 234.335751 740.703081 235.837453 743.668672 236.071664 C 745.512706 236.223212 748.223711 236.305874 749.778754 235.313924 C 751.161779 234.432191 752.255814 232.289854 752.744346 230.726155 C 753.219115 229.196899 753.053978 226.992565 752.909483 225.394423 C 752.820034 224.395585 752.235172 222.108589 752.235172 222.108589 C 755.957643 222.804332 760.87736 224.023604 764.647996 224.423139 C 767.771844 224.753789 771.982846 224.981111 775.113575 224.726235 C 777.404856 224.533356 780.638796 224.409362 782.661728 223.307195 C 784.698422 222.19814 787.333739 219.924921 787.966765 217.699922 C 788.496581 215.833127 787.478234 213.146596 786.7764 211.341797 C 785.861264 209.01347 782.290169 204.315485 782.290169 204.315485 C 784.01723 203.819509 786.39108 203.371754 788.042453 202.669123 C 789.955294 201.856275 792.384189 200.464789 794.00804 199.169744 C 795.604367 197.881586 797.544731 195.883909 798.67317 194.168662 C 799.822251 192.425861 801.487385 189.870212 801.459863 187.782983 C 801.446101 186.391498 800.400231 184.696917 799.657113 183.518976 C 798.452987 181.603961 796.368128 179.330742 794.57914 177.953034 C 792.67318 176.478886 789.693827 175.163174 787.478234 174.233221 C 785.950714 173.592587 782.235123 172.511086 782.235123 172.511086 C 782.358976 171.863563 782.58604 171.009383 782.661728 170.354972 C 782.86815 168.667279 783.136498 166.352729 782.806223 164.685702 C 782.503471 163.163334 781.739711 161.117437 780.721364 159.946385 C 779.524118 158.561788 777.232838 157.383847 775.505776 156.777655 C 774.322292 156.364343 772.622754 156.164575 771.370462 156.178352 C 768.459916 156.199018 764.572308 156.984312 761.83378 157.976262 C 759.625068 158.775333 754.98058 161.723629 754.98058 161.723629 C 754.285628 160.380363 753.576913 158.444683 752.668658 157.239188 C 751.64343 155.875256 750.02646 154.160009 748.519582 153.360938 C 747.205364 152.658307 745.182431 152.293214 743.696195 152.203663 C 741.845281 152.093447 739.354459 152.451651 737.572352 152.954514 C 735.735199 153.471155 733.437038 154.635319 731.792545 155.606603 C 729.638879 156.874095 726.996681 158.940658 725.118244 160.587019 C 723.865952 161.689186 722.586138 163.597312 721.216874 164.541042 C 721.093021 164.623705 720.879719 164.857915 720.769627 164.761476 C 720.776508 164.637482 720.728343 164.727033 720.769627 164.761476 C 720.528802 162.784464 719.65495 160.469914 718.822383 158.857995 C 718.086145 157.445844 716.854496 155.6686 715.712296 154.559545 C 714.687068 153.553818 713.18019 152.114112 711.762761 151.852348 C 710.476066 151.611249 708.721482 152.327657 707.510474 152.830521 C 706.106807 153.409158 704.352223 154.511325 703.223784 155.537718 C 700.464614 158.065813 697.801775 162.433148 695.964622 165.691429 C 693.969212 169.218362 692.118298 174.343438 690.625181 178.11147 C 689.042615 182.113713 687.804084 187.824315 685.726106 191.585459 C 684.164182 194.41665 681.460058 197.854032 679.1963 200.161694 C 677.627496 201.766724 675.074747 203.399308 673.375209 204.873456 C 670.43026 207.429106 666.604578 210.976705 663.872931 213.773453 C 660.879816 216.852631 654.370653 224.478247 654.370653 224.478247 C 654.769735 216.962848 654.53579 206.857357 655.705513 199.42462 C 656.24909 195.939017 657.356886 191.337471 658.554132 188.024082 C 660.012845 183.97362 662.586236 178.786547 664.822471 175.108066 C 667.629805 170.478966 671.854569 164.527265 675.652728 160.662793 C 678.948594 157.308073 684.308677 153.898245 687.996745 150.977503 C 690.32931 149.138262 693.824717 147.085477 695.730677 144.805369 C 697.141225 143.124565 699.177919 140.610247 699.294891 138.412802 C 699.363699 137.227973 698.565535 135.712494 697.960031 134.692989 C 696.921042 132.963965 695.063247 130.86296 693.349947 129.788347 C 690.790318 128.183317 683.682532 126.964045 683.682532 126.964045 C 685.471519 124.284402 687.900415 120.75058 689.634357 118.043383 C 693.026553 112.725428 698.916452 106.160648 700.547183 100.071177 C 701.310943 97.212432 702.267364 92.727991 700.70544 90.220561 C 699.996725 89.077063 698.090765 88.42954 696.831593 87.96112 C 694.946275 87.258488 692.228389 86.886507 690.212337 86.831399 C 688.065552 86.769402 683.111432 87.637358 683.104551 87.637358 C 684.948585 81.919868 687.900415 74.438911 689.242156 68.590539 C 689.978393 65.387367 690.6183 61.040697 690.859125 57.768639 C 691.051786 55.116551 691.939399 51.327853 690.859125 48.889309 C 690.122888 47.236059 688.127478 45.493257 686.496747 44.694186 C 685.134364 44.019109 683.015101 43.895116 681.494462 43.888227 C 679.581621 43.87445 677.035753 44.342871 675.1986 44.852623 C 672.205486 45.686137 665.67568 48.889309 665.67568 48.889309 " stroke="#498a0c" stroke-width="1" stroke-opacity="1" stroke-miterlimit="4"/></g><g clip-path="url(#id3)"><path fill="#75aa00" d="M 186.617188 10.636719 C 186.136719 11.992188 185.859375 13.90625 185.535156 15.304688 C 185.535156 15.304688 181.890625 13.488281 180.21875 13.015625 C 179.191406 12.726562 177.773438 12.460938 176.703125 12.46875 C 175.855469 12.472656 174.671875 12.546875 173.910156 12.925781 C 172.996094 13.382812 171.890625 14.371094 171.476562 15.304688 C 170.871094 16.6875 171.371094 18.835938 171.476562 20.339844 C 171.609375 22.195312 171.96875 24.660156 172.378906 26.476562 C 173.125 29.792969 174.777344 34.035156 175.804688 37.277344 C 175.804688 37.277344 173.035156 36.785156 171.839844 36.820312 C 170.714844 36.851562 169.195312 37.0625 168.144531 37.460938 C 167.4375 37.726562 166.378906 38.101562 165.980469 38.742188 C 165.097656 40.167969 165.644531 42.707031 166.070312 44.328125 C 166.980469 47.769531 170.265625 51.503906 172.160156 54.519531 C 173.128906 56.054688 174.484375 58.058594 175.480469 59.578125 C 175.480469 59.578125 171.511719 60.273438 170.085938 61.179688 C 169.128906 61.789062 168.089844 62.984375 167.511719 63.960938 C 167.171875 64.539062 166.730469 65.402344 166.765625 66.070312 C 166.832031 67.308594 167.96875 68.738281 168.757812 69.695312 C 169.820312 70.980469 171.773438 72.152344 173.074219 73.195312 C 175.132812 74.851562 178.128906 76.789062 179.964844 78.6875 C 182.089844 80.882812 184.445312 84.257812 186.011719 86.878906 C 187.261719 88.96875 188.695312 91.90625 189.511719 94.203125 C 190.179688 96.085938 190.796875 98.691406 191.101562 100.667969 C 191.753906 104.882812 191.621094 110.613281 191.84375 114.875 C 191.84375 114.875 188.214844 110.550781 186.539062 108.804688 C 185.019531 107.21875 182.882812 105.210938 181.234375 103.757812 C 180.289062 102.921875 178.863281 101.996094 177.984375 101.085938 C 176.71875 99.773438 175.210938 97.824219 174.34375 96.222656 C 173.179688 94.085938 172.492188 90.851562 171.605469 88.582031 C 170.773438 86.445312 169.742188 83.542969 168.628906 81.539062 C 167.601562 79.691406 166.125 77.21875 164.574219 75.78125 C 163.949219 75.203125 162.96875 74.574219 162.179688 74.246094 C 161.507812 73.960938 160.527344 73.554688 159.808594 73.691406 C 159.015625 73.839844 158.175781 74.660156 157.601562 75.226562 C 156.964844 75.855469 156.277344 76.867188 155.871094 77.664062 C 155.402344 78.578125 154.914062 79.890625 154.78125 80.910156 C 153.761719 80.351562 153.054688 79.269531 152.355469 78.644531 C 151.304688 77.714844 149.832031 76.539062 148.628906 75.820312 C 147.710938 75.269531 146.429688 74.609375 145.402344 74.316406 C 144.410156 74.03125 143.015625 73.828125 141.984375 73.890625 C 141.15625 73.941406 140.023438 74.152344 139.289062 74.546875 C 138.449219 75.003906 137.546875 75.976562 136.976562 76.746094 C 136.464844 77.433594 136.070312 78.527344 135.683594 79.289062 C 135.683594 79.289062 133.09375 77.617188 131.859375 77.164062 C 130.332031 76.605469 128.160156 76.15625 126.535156 76.144531 C 125.832031 76.136719 124.882812 76.25 124.226562 76.484375 C 123.257812 76.828125 121.980469 77.5 121.3125 78.28125 C 120.742188 78.945312 120.320312 80.105469 120.152344 80.96875 C 119.964844 81.914062 120.117188 83.226562 120.230469 84.183594 C 120.273438 84.554688 120.398438 85.039062 120.472656 85.40625 C 120.472656 85.40625 118.398438 86.019531 117.546875 86.382812 C 116.304688 86.910156 114.640625 87.660156 113.578125 88.492188 C 112.578125 89.277344 111.414062 90.566406 110.746094 91.648438 C 110.332031 92.316406 109.746094 93.28125 109.738281 94.066406 C 109.722656 95.246094 110.648438 96.695312 111.292969 97.6875 C 111.921875 98.65625 113.003906 99.792969 113.898438 100.523438 C 114.800781 101.253906 116.160156 102.046875 117.226562 102.507812 C 118.148438 102.90625 119.476562 103.160156 120.441406 103.441406 C 120.441406 103.441406 118.445312 106.109375 117.9375 107.425781 C 117.542969 108.453125 116.972656 109.972656 117.269531 111.03125 C 117.625 112.285156 119.089844 113.578125 120.230469 114.210938 C 121.359375 114.832031 123.164062 114.90625 124.445312 115.015625 C 126.195312 115.160156 128.546875 115.03125 130.289062 114.84375 C 132.390625 114.617188 135.136719 113.925781 137.214844 113.53125 C 137.214844 113.53125 136.890625 114.828125 136.839844 115.394531 C 136.757812 116.300781 136.667969 117.550781 136.933594 118.417969 C 137.207031 119.300781 137.808594 120.519531 138.585938 121.019531 C 139.453125 121.574219 140.96875 121.535156 142 121.449219 C 143.65625 121.316406 145.765625 120.464844 147.277344 119.773438 C 149.175781 118.902344 151.417969 117.195312 153.191406 116.089844 C 153.195312 116.089844 153.519531 118.265625 153.886719 119.121094 C 154.285156 120.054688 154.917969 121.363281 155.753906 121.9375 C 156.441406 122.414062 157.636719 122.675781 158.472656 122.589844 C 159.90625 122.441406 161.570312 121.21875 162.734375 120.367188 C 163.628906 119.71875 164.628906 118.621094 165.375 117.808594 C 166.828125 116.222656 168.523438 113.898438 169.871094 112.226562 C 169.871094 112.226562 171.472656 111.933594 172.164062 111.945312 C 172.808594 111.953125 173.660156 112.105469 174.285156 112.269531 C 175.390625 112.554688 176.878906 113.019531 177.835938 113.644531 C 179.464844 114.710938 181.257812 116.710938 182.292969 118.355469 C 183.582031 120.398438 184.460938 123.574219 185.113281 125.898438 C 185.757812 128.179688 186.339844 131.300781 186.621094 133.652344 C 186.984375 136.664062 187.054688 140.71875 187.066406 143.75 C 187.070312 145.28125 186.953125 147.316406 186.90625 148.847656 C 186.90625 148.847656 193.382812 148.925781 196.15625 148.960938 C 196.15625 148.945312 196.3125 44.894531 196.378906 0.296875 C 196.378906 0.296875 195.917969 0.289062 195.722656 0.285156 C 194.605469 0.375 193.203125 1.101562 192.296875 1.757812 C 191.195312 2.546875 190.078125 4.023438 189.320312 5.144531 C 188.292969 6.667969 187.230469 8.90625 186.617188 10.636719 M 154.78125 81.011719 C 154.714844 81.0625 154.601562 80.933594 154.53125 80.886719 C 154.777344 80.941406 154.804688 80.992188 154.78125 81.011719 Z M 154.78125 81.011719 " fill-opacity="1" fill-rule="evenodd"/></g><g clip-path="url(#id4)"><path stroke-linecap="round" transform="matrix(0.567709, 0, 0, 0.567065, -170.500091, -12.41872)" fill="none" stroke-linejoin="round" d="M 627.143633 48.889309 C 627.714733 46.423211 628.203264 43.047825 629.049593 40.657501 C 630.129867 37.605877 632.001423 33.658742 633.811053 30.972211 C 635.145913 28.995199 637.1138 26.39133 639.054164 24.999845 C 640.650492 23.842569 643.120671 22.561301 645.088558 22.402864 C 645.432594 22.409753 646.244519 22.42353 646.244519 22.42353 C 646.127547 101.070015 645.852318 284.560112 645.852318 284.587666 C 640.967005 284.525669 629.558767 284.387898 629.558767 284.387898 C 629.641335 281.68759 629.847757 278.098659 629.840876 275.398351 C 629.820234 270.052842 629.696381 262.902535 629.056474 257.591469 C 628.561062 253.444567 627.535834 247.940622 626.400515 243.917713 C 625.251434 239.819031 623.703272 234.218646 621.432633 230.615938 C 619.609242 227.715862 616.45099 224.188929 613.581728 222.308357 C 611.895951 221.20619 609.274396 220.386453 607.327151 219.88359 C 606.226236 219.594271 604.726238 219.325618 603.590919 219.311841 C 602.373031 219.291175 599.551935 219.807816 599.551935 219.807816 C 597.178085 222.756112 594.191852 226.854794 591.632223 229.651542 C 590.318005 231.084359 588.55654 233.02004 586.980854 234.163538 C 584.930399 235.66524 581.999211 237.821353 579.473986 238.083118 C 578.001511 238.234666 575.89601 237.773134 574.685003 236.932731 C 573.212528 235.920116 572.097851 233.612454 571.396017 231.966093 C 570.749229 230.457502 570.178129 226.620584 570.171249 226.620584 C 567.047401 228.570041 563.097866 231.580334 559.753835 233.116479 C 557.090995 234.335751 553.375405 235.837453 550.457978 236.071664 C 548.641467 236.223212 545.971747 236.292097 544.444226 235.313924 C 543.074963 234.432191 542.015331 232.282966 541.533681 230.726155 C 541.065792 229.196899 541.224048 226.992565 541.368543 225.394423 C 541.457993 224.395585 542.029093 222.108589 542.029093 222.108589 C 538.368548 222.804332 533.5314 224.023604 529.829571 224.423139 C 526.760769 224.753789 522.618574 224.981111 519.53601 224.726235 C 517.279133 224.533356 514.100239 224.402473 512.11171 223.307195 C 510.102539 222.191251 507.522268 219.911144 506.896123 217.699922 C 506.373188 215.833127 507.377773 213.153484 508.072726 211.341797 C 508.96722 209.020359 512.483269 204.315485 512.483269 204.315485 C 510.783731 203.819509 508.444285 203.371754 506.820435 202.669123 C 504.941997 201.856275 502.547506 200.457901 500.958059 199.169744 C 499.382373 197.881586 497.476413 195.87702 496.368617 194.168662 C 495.233297 192.418972 493.602566 189.863323 493.630089 187.782983 C 493.643851 186.398386 494.675959 184.696917 495.405316 183.518976 C 496.581919 181.61085 498.632375 179.337631 500.39384 177.953034 C 502.265396 176.485774 505.196584 175.163174 507.384654 174.233221 C 508.884651 173.592587 512.538315 172.511086 512.538315 172.511086 C 512.407581 171.863563 512.187398 171.009383 512.11171 170.354972 C 511.912169 168.667279 511.643821 166.352729 511.974096 164.685702 C 512.269967 163.163334 513.013085 161.117437 514.017671 159.946385 C 515.194274 158.568676 517.44427 157.383847 519.15069 156.777655 C 520.306651 156.364343 521.978667 156.164575 523.217197 156.178352 C 526.079577 156.199018 529.905259 156.9912 532.595622 157.976262 C 534.76993 158.775333 539.331849 161.723629 539.331849 161.723629 C 540.013041 160.380363 540.707994 158.451571 541.609369 157.239188 C 542.613954 155.882145 544.203401 154.166898 545.682757 153.360938 C 546.976332 152.665196 548.971742 152.293214 550.430455 152.203663 C 552.246966 152.093447 554.703384 152.451651 556.451088 152.954514 C 558.260718 153.471155 560.517595 154.635319 562.134565 155.606603 C 564.253827 156.874095 566.84786 158.947546 568.698774 160.587019 C 569.930423 161.689186 571.175834 163.597312 572.531337 164.541042 C 572.65519 164.623705 572.854731 164.851027 572.971703 164.761476 C 572.964822 164.637482 573.012987 164.727033 572.971703 164.761476 C 573.205647 162.784464 574.065738 160.469914 574.891425 158.857995 C 575.60702 157.452732 576.818027 155.6686 577.939585 154.559545 C 578.951051 153.560706 580.430406 152.114112 581.827193 151.852348 C 583.093246 151.611249 584.820307 152.327657 586.003792 152.830521 C 587.393698 153.409158 589.120759 154.518214 590.221675 155.537718 C 592.953322 158.072701 595.554235 162.433148 597.363865 165.691429 C 599.324871 169.225251 601.141382 174.343438 602.606976 178.11147 C 604.1689 182.113713 605.379907 187.817426 607.430362 191.585459 C 608.957883 194.409761 611.613842 197.847143 613.843196 200.161694 C 615.391358 201.766724 617.902822 203.399308 619.567957 204.873456 C 622.471622 207.435994 626.235378 210.976705 628.911979 213.773453 C 631.863809 216.852631 638.256 224.478247 638.256 224.478247 C 637.863799 216.962848 638.097744 206.857357 636.948663 199.42462 C 636.411966 195.939017 635.324812 191.34436 634.148209 188.024082 C 632.710138 183.97362 630.184912 178.793436 627.983081 175.108066 C 625.223911 170.485854 621.074835 164.534154 617.331722 160.662793 C 614.097783 157.314962 608.820268 153.898245 605.194127 150.977503 C 602.902847 149.138262 599.462485 147.071699 597.590929 144.805369 C 596.201023 143.117676 594.198732 140.59647 594.08176 138.412802 C 594.019834 137.234861 594.797355 135.712494 595.395978 134.692989 C 596.414325 132.970854 598.244597 130.86296 599.930375 129.788347 C 602.441838 128.190206 609.432653 126.964045 609.432653 126.964045 C 607.678068 124.284402 605.290458 120.75058 603.584038 118.043383 C 600.246888 112.725428 594.4602 106.139982 592.856992 100.071177 C 592.106993 97.212432 591.143692 92.734879 592.698735 90.220561 C 593.400569 89.09084 595.265245 88.42954 596.510655 87.96112 C 598.36157 87.258488 601.038171 86.886507 603.019819 86.831399 C 605.12532 86.769402 610.003753 87.637358 610.003753 87.637358 C 608.194123 81.919868 605.283577 74.438911 603.969359 68.590539 C 603.246883 65.387367 602.613856 61.040697 602.379912 57.768639 C 602.194132 55.116551 601.3134 51.327853 602.379912 48.889309 C 603.109268 47.242947 605.056513 45.500146 606.666602 44.694186 C 608.008343 44.025998 610.093202 43.895116 611.586319 43.888227 C 613.471637 43.87445 615.969339 44.342871 617.778969 44.852623 C 620.723919 45.686137 627.143633 48.889309 627.143633 48.889309 " stroke="#75aa00" stroke-width="1" stroke-opacity="1" stroke-miterlimit="4"/></g><path fill="#e86201" d="M 193.738281 374.09375 C 192.285156 373.335938 191.074219 371.347656 189.929688 370.171875 C 189.933594 370.152344 194.644531 213.878906 196.664062 146.898438 C 199.304688 146.917969 202.832031 146.796875 205.46875 146.972656 C 208.015625 147.140625 211.40625 147.515625 213.910156 148.019531 C 217.089844 148.65625 221.449219 149.4375 224.3125 150.957031 C 226.824219 152.292969 229.730469 154.878906 231.578125 157.039062 C 233.566406 159.359375 235.597656 162.976562 236.816406 165.777344 C 237.867188 168.199219 238.761719 171.636719 239.289062 174.222656 C 239.703125 176.273438 239.941406 179.058594 240.128906 181.136719 C 240.425781 184.496094 240.734375 188.992188 240.726562 192.363281 C 240.71875 195.25 240.4375 199.101562 240.179688 201.976562 C 239.480469 209.742188 237.933594 220.027344 236.84375 227.746094 C 235.539062 236.992188 233.765625 249.316406 232.136719 258.507812 C 228.808594 277.277344 223.753906 302.203125 219.359375 320.753906 C 216.734375 331.816406 213.34375 346.636719 209.613281 357.375 C 208.542969 360.453125 207.035156 364.566406 205.441406 367.410156 C 204.652344 368.820312 203.453125 370.632812 202.351562 371.8125 C 201.558594 372.660156 200.429688 373.804688 199.363281 374.269531 C 198.613281 374.59375 197.484375 374.695312 196.667969 374.679688 C 195.773438 374.660156 194.535156 374.507812 193.738281 374.09375 M 196.664062 146.898438 Z M 196.664062 146.898438 " fill-opacity="1" fill-rule="evenodd"/><path stroke-linecap="round" transform="matrix(0.567709, 0, 0, 0.567065, -170.500091, -12.41872)" fill="none" stroke-linejoin="round" d="M 634.884446 674.685806 C 636.900498 676.759257 639.033522 680.265525 641.593151 681.601903 C 642.996818 682.332088 645.178007 682.600741 646.753693 682.635184 C 648.191764 682.662738 650.180293 682.483636 651.501391 681.911887 C 653.379829 681.09215 655.368358 679.073808 656.765144 677.578994 C 658.705508 675.498654 660.81789 672.302371 662.207796 669.815607 C 665.015131 664.800748 667.67109 657.547113 669.556408 652.118942 C 676.127498 633.18234 682.099965 607.047211 686.723811 587.53886 C 694.464624 554.825173 703.368279 510.869386 709.230655 477.769941 C 712.099916 461.561202 715.223765 439.827851 717.521926 423.522672 C 719.441648 409.910913 722.166414 391.773381 723.398063 378.07896 C 723.852191 373.008993 724.347603 366.21689 724.361364 361.126257 C 724.375126 355.181446 723.831549 347.252734 723.308614 341.328587 C 722.978339 337.663883 722.558615 332.752352 721.829258 329.135868 C 720.900361 324.575653 719.324675 318.513736 717.473761 314.24284 C 715.326975 309.303755 711.749 302.924965 708.246712 298.833171 C 704.99213 295.023807 699.872872 290.463592 695.448567 288.107711 C 690.404998 285.428068 682.726111 284.05036 677.125203 282.927527 C 672.71466 282.038905 666.742192 281.377605 662.255961 281.081398 C 657.611473 280.771414 651.398181 280.984958 646.746812 280.950516 C 643.189478 399.068347 634.891327 674.651364 634.884446 674.685806 " stroke="#e86201" stroke-width="1" stroke-opacity="1" stroke-miterlimit="4"/><path fill="#ff7900" d="M 198.292969 344.964844 C 196.089844 352.644531 192.496094 362.683594 190.011719 370.277344 C 190.011719 370.277344 187.886719 366.367188 187.136719 364.617188 C 185.550781 360.921875 183.953125 355.789062 182.78125 351.945312 C 179.710938 341.894531 176.378906 328.277344 173.964844 318.050781 C 170.742188 304.417969 166.890625 286.132812 164.308594 272.363281 C 161.542969 257.625 158.335938 237.882812 156.222656 223.035156 C 155.148438 215.503906 153.597656 205.457031 153.113281 197.863281 C 152.757812 192.332031 152.253906 184.890625 152.949219 179.390625 C 153.511719 174.941406 154.96875 169.046875 156.722656 164.917969 C 157.667969 162.6875 159.292969 159.84375 160.808594 157.957031 C 162.21875 156.207031 164.433594 154.117188 166.292969 152.851562 C 167.878906 151.773438 170.257812 150.75 172.050781 150.066406 C 173.867188 149.378906 176.382812 148.722656 178.277344 148.304688 C 180.390625 147.835938 183.246094 147.367188 185.398438 147.164062 C 188.785156 146.847656 193.328125 146.976562 196.726562 146.898438 C 197.804688 147.203125 199.300781 147.453125 200.316406 147.917969 C 202.71875 149.015625 205.691406 151.066406 207.546875 152.945312 C 209.929688 155.351562 212.296875 159.304688 213.796875 162.335938 C 215.730469 166.25 217.386719 171.894531 218.449219 176.128906 C 219.542969 180.484375 220.472656 186.421875 220.925781 190.890625 C 221.734375 198.949219 221.902344 209.785156 221.644531 217.882812 C 221.460938 223.574219 220.707031 231.140625 220.003906 236.789062 C 217.578125 256.277344 212.914062 282.074219 208.90625 301.296875 C 206.152344 314.492188 202.007812 332.003906 198.292969 344.964844 M 196.726562 146.898438 Z M 196.726562 146.898438 " fill-opacity="1" fill-rule="evenodd"/><path stroke-linecap="round" transform="matrix(0.567709, 0, 0, 0.567065, -170.500091, -12.41872)" fill="none" stroke-linejoin="round" d="M 635.028941 674.871797 C 639.405081 661.480471 645.735346 643.776918 649.616073 630.234044 C 656.159641 607.377861 663.460087 576.496527 668.310997 553.227032 C 675.370619 519.328516 683.586201 473.836584 687.85913 439.469647 C 689.09766 429.508815 690.42564 416.165709 690.749034 406.129103 C 691.203162 391.849155 690.90729 372.740339 689.482981 358.529277 C 688.684817 350.648785 687.047205 340.178201 685.120603 332.497476 C 683.249046 325.030297 680.33162 315.076353 676.925662 308.174034 C 674.283464 302.828525 670.113746 295.857321 665.916505 291.613979 C 662.648162 288.30059 657.411932 284.684105 653.180288 282.748425 C 651.3913 281.928689 648.755983 281.487822 646.856904 280.950516 C 640.870675 281.088286 632.868394 280.860965 626.902808 281.418936 C 623.111529 281.777141 618.081721 282.603766 614.35925 283.430391 C 611.0221 284.167465 606.590914 285.32474 603.391378 286.537123 C 600.233126 287.742618 596.042766 289.547416 593.249193 291.448654 C 589.973969 293.680541 586.072599 297.365912 583.588658 300.451978 C 580.918938 303.779144 578.056557 308.794003 576.391422 312.72736 C 573.301978 320.008549 570.735468 330.40336 569.744644 338.249409 C 568.519875 347.948476 569.407488 361.071149 570.033634 370.825325 C 570.886844 384.216651 573.618491 401.933981 575.51069 415.21509 C 579.233161 441.398439 584.882234 476.213131 589.753786 502.2036 C 594.301943 526.485711 601.086336 558.730977 606.762932 582.771989 C 611.015219 600.806192 616.884475 624.81965 622.292723 642.543869 C 624.35694 649.322194 627.171156 658.373738 629.964729 664.890299 C 631.285828 667.976366 635.028941 674.871797 635.028941 674.871797 " stroke="#ff7900" stroke-width="1" stroke-opacity="1" stroke-miterlimit="4"/><path fill="#d44f02" d="M 210.617188 184.808594 C 212.554688 184.800781 215.136719 184.921875 217.066406 184.777344 C 219.144531 184.621094 221.894531 184.183594 223.933594 183.773438 C 226.609375 183.230469 230.152344 182.320312 232.742188 181.449219 C 235 180.691406 237.882812 179.332031 240.089844 178.4375 C 240.089844 178.4375 240.394531 181.417969 240.472656 182.699219 C 240.578125 184.460938 240.644531 188.585938 240.644531 188.585938 C 236.433594 188.574219 230.792969 188.976562 226.601562 188.550781 C 223.109375 188.195312 218.519531 187.164062 215.125 186.265625 C 213.753906 185.902344 210.617188 184.808594 210.617188 184.808594 Z M 210.617188 184.808594 " fill-opacity="1" fill-rule="evenodd"/><path stroke-linecap="round" transform="matrix(0.567709, 0, 0, 0.567065, -170.500091, -12.41872)" fill="none" stroke-linejoin="round" d="M 724.216869 354.465037 C 724.216869 354.465037 724.099897 347.190737 723.914117 344.084004 C 723.776503 341.824562 723.239807 336.568605 723.239807 336.568605 C 719.352198 338.146081 714.274225 340.543294 710.297167 341.879671 C 705.735248 343.415816 699.494432 345.020846 694.781137 345.978353 C 691.1894 346.70165 686.345371 347.473167 682.684827 347.748709 C 679.28575 348.003585 674.737592 347.79004 671.324754 347.803817 C 671.324754 347.803817 676.849974 349.732609 679.265108 350.373243 C 685.244456 351.957608 693.329305 353.776183 699.480671 354.40304 C 706.863686 355.153891 716.79945 354.444372 724.216869 354.465037 M 671.324754 347.803817 L 671.324754 347.803817 " stroke="#d44f02" stroke-width="1" stroke-opacity="1" stroke-miterlimit="4"/><path fill="#d44f02" d="M 207.0625 242.445312 C 208.160156 242.414062 209.621094 242.40625 210.71875 242.34375 C 213.171875 242.203125 216.449219 242 218.871094 241.601562 C 221.78125 241.117188 225.617188 240.191406 228.417969 239.265625 C 230.664062 238.523438 233.511719 237.136719 235.691406 236.226562 C 235.691406 236.226562 235.492188 238.046875 235.386719 238.828125 C 235.085938 241.074219 234.238281 246.296875 234.238281 246.300781 C 230.449219 246.269531 225.378906 246.617188 221.613281 246.199219 C 218.445312 245.84375 214.28125 244.867188 211.226562 243.964844 C 209.949219 243.589844 207.0625 242.445312 207.0625 242.445312 Z M 207.0625 242.445312 " fill-opacity="1" fill-rule="evenodd"/><path stroke-linecap="round" transform="matrix(0.567709, 0, 0, 0.567065, -170.500091, -12.41872)" fill="none" stroke-linejoin="round" d="M 712.932484 456.243247 C 712.932484 456.236358 714.425601 447.026378 714.955416 443.065466 C 715.141196 441.687758 715.492113 438.477697 715.492113 438.477697 C 711.652669 440.082727 706.636623 442.52816 702.680207 443.836983 C 697.746729 445.469567 690.989859 447.102152 685.863721 447.956331 C 681.597673 448.658962 675.824746 449.017166 671.503652 449.265154 C 669.570169 449.375371 666.996779 449.389148 665.063296 449.444256 C 665.063296 449.444256 670.14815 451.462599 672.398146 452.123899 C 677.778871 453.715152 685.113722 455.437288 690.693988 456.064145 C 697.327005 456.801219 706.258183 456.188139 712.932484 456.243247 M 665.063296 449.444256 L 665.063296 449.444256 " stroke="#d44f02" stroke-width="1" stroke-opacity="1" stroke-miterlimit="4"/><path fill="#d44f02" d="M 199.414062 314.308594 C 201.917969 314.207031 205.265625 314.226562 207.761719 313.972656 C 210.414062 313.703125 213.953125 313.207031 216.535156 312.53125 C 218.132812 312.113281 220.171875 311.253906 221.722656 310.691406 C 221.722656 310.691406 220.007812 318.164062 220.007812 318.164062 C 218.394531 318.167969 216.238281 318.320312 214.632812 318.171875 C 212.074219 317.933594 208.714844 317.164062 206.226562 316.515625 C 204.148438 315.972656 199.414062 314.308594 199.414062 314.308594 Z M 199.414062 314.308594 " fill-opacity="1" fill-rule="evenodd"/><path stroke-linecap="round" transform="matrix(0.567709, 0, 0, 0.567065, -170.500091, -12.41872)" fill="none" stroke-linejoin="round" d="M 687.866011 582.971756 C 687.866011 582.971756 690.886648 569.793975 690.886648 569.793975 C 688.155001 570.785925 684.563264 572.301405 681.749048 573.038479 C 677.200891 574.230196 670.966956 575.105041 666.294945 575.580351 C 661.898163 576.028106 656.001384 575.993663 651.590841 576.172765 C 651.590841 576.172765 659.930277 579.107284 663.590821 580.064792 C 667.973842 581.20829 673.891263 582.565332 678.398137 582.985534 C 681.226114 583.247298 685.024273 582.978645 687.866011 582.971756 M 651.590841 576.172765 L 651.590841 576.172765 " stroke="#d44f02" stroke-width="1" stroke-opacity="1" stroke-miterlimit="4"/><path fill="#d44f02" d="M 182.015625 206.484375 C 180.359375 206.332031 178.148438 206.148438 176.492188 205.980469 C 173.527344 205.675781 169.535156 205.460938 166.617188 204.84375 C 163.777344 204.242188 160.097656 202.980469 157.375 201.96875 C 156.105469 201.496094 154.476562 200.710938 153.222656 200.195312 C 153.222656 200.195312 153.40625 202.9375 153.527344 204.109375 C 153.714844 205.941406 154.328125 210.195312 154.328125 210.195312 C 158.4375 210.195312 163.945312 210.6875 168.023438 210.195312 C 170.242188 209.925781 173.125 209.097656 175.289062 208.523438 C 177.328125 207.980469 182.015625 206.484375 182.015625 206.484375 Z M 182.015625 206.484375 " fill-opacity="1" fill-rule="evenodd"/><path stroke-linecap="round" transform="matrix(0.567709, 0, 0, 0.567065, -170.500091, -12.41872)" fill="none" stroke-linejoin="round" d="M 572.173539 392.572452 C 572.173539 392.572452 571.093266 385.07083 570.762991 381.840104 C 570.549688 379.773541 570.226295 374.937784 570.226295 374.937784 C 572.435006 375.847072 575.304268 377.231669 577.540503 378.065182 C 582.336367 379.849315 588.818007 382.074314 593.820293 383.135149 C 598.960193 384.223539 605.992291 384.602409 611.21476 385.139715 C 614.132186 385.435923 618.026675 385.759684 620.944102 386.028337 C 620.944102 386.028337 612.687234 388.666649 609.095497 389.624156 C 605.283577 390.636772 600.205603 392.097143 596.297353 392.572452 C 589.113878 393.440408 579.412059 392.572452 572.173539 392.572452 M 620.944102 386.028337 L 620.944102 386.028337 " stroke="#d44f02" stroke-width="1" stroke-opacity="1" stroke-miterlimit="4"/><path fill="#d44f02" d="M 190.542969 282.816406 C 188.570312 282.617188 185.933594 282.371094 183.960938 282.148438 C 181.378906 281.847656 177.90625 281.605469 175.367188 281.039062 C 172.261719 280.347656 165.28125 277.769531 165.28125 277.769531 C 165.480469 278.71875 165.75 279.988281 165.945312 280.9375 C 166.28125 282.578125 167.042969 286.40625 167.042969 286.40625 C 170.0625 286.304688 174.113281 286.429688 177.113281 286.070312 C 179.042969 285.839844 181.570312 285.246094 183.460938 284.796875 C 185.605469 284.28125 190.542969 282.816406 190.542969 282.816406 Z M 190.542969 282.816406 " fill-opacity="1" fill-rule="evenodd"/><path stroke-linecap="round" transform="matrix(0.567709, 0, 0, 0.567065, -170.500091, -12.41872)" fill="none" stroke-linejoin="round" d="M 594.570292 526.967909 C 594.570292 526.967909 593.228551 520.217138 592.636808 517.32395 C 592.292772 515.650034 591.818002 513.411258 591.467086 511.737342 C 591.467086 511.737342 603.762937 516.28378 609.233112 517.503052 C 613.705581 518.501891 619.822544 518.92898 624.370702 519.459398 C 627.845467 519.852045 632.489954 520.286023 635.964719 520.637339 C 635.964719 520.637339 627.267486 523.220542 623.489969 524.12983 C 620.159699 524.922012 615.707872 525.96907 612.308795 526.375494 C 607.0244 527.00924 599.88909 526.788807 594.570292 526.967909 M 635.964719 520.637339 L 635.964719 520.637339 " stroke="#d44f02" stroke-width="1" stroke-opacity="1" stroke-miterlimit="4"/></svg>