<svg xmlns="http://www.w3.org/2000/svg" xmlns:xlink="http://www.w3.org/1999/xlink" width="500" zoomAndPan="magnify" viewBox="0 0 375 374.999991" height="500" preserveAspectRatio="xMidYMid meet" version="1.0"><defs><clipPath id="id1"><path d="M 135 27.070312 L 289 27.070312 L 289 178 L 135 178 Z M 135 27.070312 " clip-rule="nonzero"/></clipPath></defs><path fill="#ef302b" d="M 311.921875 241.578125 C 296.15625 308.015625 232.878906 337.519531 166.457031 321.75 C 100.039062 305.980469 37.480469 237.839844 65.496094 154.3125 C 93.394531 71.128906 174.574219 95.496094 240.992188 111.265625 C 307.414062 127.035156 327.6875 175.148438 311.921875 241.578125 " fill-opacity="1" fill-rule="nonzero"/><path fill="#cccbcb" d="M 201.199219 325.917969 L 201.195312 325.917969 L 201.199219 325.917969 M 201.199219 325.917969 C 253.800781 325.914062 298.949219 296.25 311.921875 241.578125 C 311.929688 241.550781 311.9375 241.523438 311.941406 241.496094 C 311.9375 241.519531 311.929688 241.550781 311.921875 241.578125 C 298.949219 296.257812 253.804688 325.917969 201.199219 325.917969 M 166.734375 321.8125 C 166.730469 321.8125 166.726562 321.8125 166.722656 321.8125 C 166.726562 321.8125 166.730469 321.8125 166.734375 321.8125 M 166.597656 321.78125 C 166.550781 321.773438 166.503906 321.761719 166.457031 321.75 C 166.503906 321.761719 166.550781 321.773438 166.597656 321.78125 M 166.363281 321.726562 C 166.359375 321.726562 166.359375 321.726562 166.359375 321.726562 L 166.363281 321.726562 M 166.265625 321.703125 C 166.265625 321.703125 166.261719 321.703125 166.257812 321.699219 C 166.261719 321.703125 166.261719 321.703125 166.265625 321.703125 M 166.164062 321.679688 C 166.164062 321.679688 166.15625 321.675781 166.15625 321.675781 C 166.160156 321.675781 166.160156 321.679688 166.164062 321.679688 M 166.070312 321.65625 C 166.0625 321.652344 166.0625 321.652344 166.054688 321.652344 C 166.058594 321.652344 166.066406 321.652344 166.070312 321.65625 M 165.972656 321.636719 C 165.964844 321.632812 165.964844 321.632812 165.957031 321.632812 C 165.960938 321.632812 165.96875 321.632812 165.972656 321.636719 M 165.875 321.609375 C 165.871094 321.609375 165.863281 321.609375 165.859375 321.605469 C 165.863281 321.605469 165.871094 321.609375 165.875 321.609375 M 165.773438 321.585938 C 165.773438 321.582031 165.769531 321.582031 165.761719 321.582031 C 165.765625 321.582031 165.773438 321.585938 165.773438 321.585938 M 165.675781 321.5625 C 165.671875 321.558594 165.667969 321.558594 165.660156 321.558594 C 165.667969 321.558594 165.671875 321.558594 165.675781 321.5625 M 165.578125 321.535156 C 165.574219 321.535156 165.570312 321.535156 165.566406 321.53125 C 165.570312 321.535156 165.574219 321.535156 165.578125 321.535156 M 165.480469 321.515625 C 165.476562 321.515625 165.472656 321.515625 165.46875 321.511719 C 165.472656 321.515625 165.476562 321.515625 165.480469 321.515625 M 165.382812 321.488281 C 165.378906 321.488281 165.378906 321.488281 165.375 321.488281 L 165.382812 321.488281 M 311.949219 241.46875 C 311.953125 241.445312 311.960938 241.421875 311.964844 241.398438 C 311.960938 241.421875 311.953125 241.449219 311.949219 241.46875 M 311.972656 241.367188 C 311.976562 241.34375 311.980469 241.328125 311.984375 241.304688 C 311.980469 241.328125 311.976562 241.347656 311.972656 241.367188 M 311.992188 241.269531 C 312 241.25 312 241.238281 312.003906 241.21875 C 312 241.238281 311.996094 241.253906 311.992188 241.269531 M 312.019531 241.15625 C 312.023438 241.144531 312.027344 241.128906 312.03125 241.117188 C 312.027344 241.132812 312.023438 241.140625 312.019531 241.15625 M 312.042969 241.070312 C 312.042969 241.058594 312.046875 241.046875 312.050781 241.035156 C 312.046875 241.046875 312.042969 241.058594 312.042969 241.070312 M 312.070312 240.949219 C 312.074219 240.9375 312.074219 240.9375 312.074219 240.929688 C 312.074219 240.9375 312.074219 240.9375 312.070312 240.949219 M 312.089844 240.871094 C 312.09375 240.867188 312.089844 240.875 312.089844 240.871094 " fill-opacity="1" fill-rule="nonzero"/><path fill="#bf2621" d="M 201.199219 325.917969 L 201.195312 325.917969 C 189.96875 325.914062 178.398438 324.558594 166.734375 321.8125 C 166.730469 321.8125 166.726562 321.8125 166.722656 321.8125 C 166.675781 321.800781 166.644531 321.792969 166.597656 321.78125 C 166.550781 321.773438 166.503906 321.761719 166.457031 321.75 C 166.425781 321.742188 166.398438 321.734375 166.363281 321.726562 L 166.359375 321.726562 C 166.324219 321.71875 166.292969 321.710938 166.265625 321.703125 C 166.261719 321.703125 166.261719 321.703125 166.257812 321.699219 C 166.226562 321.695312 166.199219 321.6875 166.164062 321.679688 C 166.160156 321.679688 166.160156 321.675781 166.15625 321.675781 C 166.128906 321.667969 166.097656 321.660156 166.070312 321.65625 C 166.066406 321.652344 166.058594 321.652344 166.054688 321.652344 C 166.027344 321.644531 166 321.640625 165.972656 321.636719 C 165.96875 321.632812 165.960938 321.632812 165.957031 321.632812 C 165.929688 321.625 165.898438 321.617188 165.875 321.609375 C 165.871094 321.609375 165.863281 321.605469 165.859375 321.605469 C 165.832031 321.597656 165.800781 321.59375 165.773438 321.585938 C 165.773438 321.585938 165.765625 321.582031 165.761719 321.582031 C 165.734375 321.574219 165.703125 321.566406 165.675781 321.5625 C 165.671875 321.558594 165.667969 321.558594 165.660156 321.558594 C 165.636719 321.550781 165.605469 321.542969 165.578125 321.535156 C 165.574219 321.535156 165.570312 321.535156 165.566406 321.53125 C 165.535156 321.527344 165.511719 321.519531 165.480469 321.515625 C 165.476562 321.515625 165.472656 321.515625 165.46875 321.511719 C 165.4375 321.503906 165.410156 321.496094 165.382812 321.488281 L 165.375 321.488281 C 165.34375 321.480469 165.3125 321.472656 165.277344 321.464844 C 132.144531 313.285156 100.121094 292.085938 79.957031 262.507812 C 104.390625 285.117188 137.011719 298.703125 168.648438 300.984375 C 172.464844 301.261719 176.25 301.394531 179.996094 301.394531 C 243.042969 301.394531 294.734375 262.796875 299.367188 198.515625 C 301.050781 175.171875 298.898438 154.636719 292.597656 137.523438 C 316.800781 161.25 322.339844 197.035156 312.089844 240.871094 C 312.089844 240.875 312.09375 240.867188 312.089844 240.871094 C 312.085938 240.886719 312.082031 240.90625 312.074219 240.929688 C 312.074219 240.9375 312.074219 240.9375 312.070312 240.949219 C 312.066406 240.976562 312.058594 241.007812 312.050781 241.035156 C 312.046875 241.046875 312.042969 241.058594 312.042969 241.070312 C 312.039062 241.089844 312.035156 241.101562 312.03125 241.117188 C 312.027344 241.128906 312.023438 241.144531 312.019531 241.15625 C 312.015625 241.175781 312.011719 241.199219 312.003906 241.21875 C 312 241.238281 312 241.25 311.992188 241.269531 C 311.992188 241.28125 311.988281 241.292969 311.984375 241.304688 C 311.980469 241.328125 311.976562 241.34375 311.972656 241.367188 C 311.972656 241.378906 311.96875 241.390625 311.964844 241.398438 C 311.960938 241.421875 311.953125 241.445312 311.949219 241.46875 C 311.945312 241.480469 311.945312 241.484375 311.941406 241.496094 C 311.9375 241.523438 311.929688 241.550781 311.921875 241.578125 C 298.949219 296.25 253.800781 325.914062 201.199219 325.917969 " fill-opacity="1" fill-rule="nonzero"/><path fill="#f1493a" d="M 133.082031 195.664062 C 129.070312 212.570312 112.125 223.023438 95.21875 219.011719 C 78.316406 214.992188 67.867188 198.039062 71.878906 181.128906 C 82.476562 136.484375 97.003906 119.234375 113.910156 123.246094 C 130.816406 127.261719 106.476562 171.582031 133.082031 195.664062 " fill-opacity="1" fill-rule="nonzero"/><path fill="#2e5223" d="M 232.273438 130.222656 C 266.574219 144.90625 243.21875 191.691406 237.003906 202.574219 C 241.042969 167.191406 231.390625 141.167969 193.332031 142.304688 C 167.878906 112.703125 113.570312 155.824219 113.570312 155.824219 C 113.570312 155.824219 142.453125 96.140625 196.234375 116.578125 C 196.234375 116.578125 129.761719 75.351562 102.402344 111.015625 C 121.25 80.601562 166.605469 68.785156 207.160156 99.617188 C 207.160156 99.617188 281.09375 111.285156 304.226562 81.164062 C 280.398438 131.878906 253.027344 117.699219 249.625 119.800781 C 249.625 119.800781 301.386719 133.0625 316.402344 167.640625 C 287.863281 143.902344 232.273438 130.222656 232.273438 130.222656 " fill-opacity="1" fill-rule="nonzero"/><g clip-path="url(#id1)"><path fill="#447a2e" d="M 167.371094 166.320312 C 167.371094 166.320312 181.863281 133.945312 208.472656 143.980469 C 235.078125 154.027344 216.640625 172.832031 213.394531 177.246094 C 213.394531 177.246094 249.753906 164.949219 241.574219 146.292969 C 233.398438 127.636719 279.824219 159.726562 276.929688 166.4375 C 280.929688 149.523438 252.6875 128.761719 239.546875 124.523438 C 239.546875 124.523438 273.714844 116.613281 288.058594 138.71875 C 278.464844 109.773438 231.78125 103.3125 223.480469 109.871094 C 223.480469 109.871094 240.734375 93.597656 244.613281 53.34375 C 228.25 75.734375 216.09375 91.503906 201.464844 99.128906 C 201.464844 99.128906 179.746094 62.632812 201.039062 27.089844 C 167.175781 42.925781 173.683594 92.714844 187.25 101.457031 C 187.25 101.457031 150.28125 96.445312 135.710938 119.050781 C 160.710938 110.371094 178.929688 113.699219 196.515625 120.101562 C 196.515625 120.101562 161.691406 134.269531 167.371094 166.320312 " fill-opacity="1" fill-rule="nonzero"/></g><path fill="#5dab33" d="M 221.117188 124.738281 L 217.554688 120.34375 L 285.683594 43.996094 L 299.546875 61.089844 L 221.117188 124.738281 " fill-opacity="1" fill-rule="nonzero"/></svg>